<?xml version="1.0" encoding="utf-8"?>
<!-- Generator: Adobe Illustrator 16.0.0, SVG Export Plug-In . SVG Version: 6.00 Build 0)  -->
<!DOCTYPE svg PUBLIC "-//W3C//DTD SVG 1.1//EN" "http://www.w3.org/Graphics/SVG/1.1/DTD/svg11.dtd">
<svg version="1.1" id="Layer_1" xmlns="http://www.w3.org/2000/svg" xmlns:xlink="http://www.w3.org/1999/xlink" x="0px" y="0px"
	 width="29.785px" height="12.529px" viewBox="0 0 29.785 12.529" enable-background="new 0 0 29.785 12.529" xml:space="preserve">
<path fill="#E3C477" d="M26.342,0c-0.008,1.146-0.246,2.383-0.846,3.37c-0.703-1.172-2.604-1.823-3.901-1.934
	c-1.369-0.118-2.779,0.094-4.058,0.622C15.545,2.88,13.89,4.259,12.039,5.33c-0.542,0.313-1.061-0.019-1.336-0.551
	c-0.4-0.774,0.587-1.842,1.162-0.98c0.98-2.297-2.998-3.117-3.555-0.89c-0.576,2.301,2.065,3.603,4.01,3.073
	c-0.171,1.196-1.576,2.059-2.5,2.627c-1.222,0.752-2.694,1.694-4.187,1.694c-1.386,0-3.274-0.724-3.274-2.366
	c0-0.595,0.227-1.206,0.933-1.072C3.969,6.991,4.235,7.755,4.36,8.345C6.25,7.212,5.593,4.244,3.579,3.643
	C1.064,2.892-0.53,6.112,0.163,8.196c0.696,2.095,3.356,3.012,5.369,2.918c2.252-0.105,4.329-1.583,6.013-2.951
	c-0.271,0.572-0.526,1.152-0.776,1.734c-0.137,0.319-0.622,1.043-0.493,1.397c0.215,0.592,1.046-0.895,1.127-1.031
	c0.307-0.521,0.596-1.066,0.78-1.646c0.577,2.504,2.947,3.911,5.412,3.911c1.271,0,2.269-0.392,3.358-0.995
	c0.255-0.141,1.506-1.281,0.512-0.977c-0.54,0.165-0.973,0.571-1.504,0.771c-0.609,0.229-1.263,0.349-1.91,0.401
	c-1.222,0.099-2.434-0.095-3.425-0.858c-1.759-1.353-2.444-4.245-0.396-5.664C14.132,6.35,14.07,7.744,15.234,8.38
	c1.278,0.698,3.815,0.28,3.815-1.535c-1.513,0.464-3.081-0.038-2.776-1.89c0.253-1.544,1.757-2.387,3.172-2.671
	C20.855,2,22.531,2.128,23.821,2.802c0.357,0.187,1.527,0.867,1.132,1.252c-0.532,0.519-1.232,0.782-1.973,0.789
	c2.488,0.074,3.447,2.738,3.469,4.851c0.012-2.059,0.835-4.883,3.336-4.876C27.331,4.712,26.366,2.1,26.342,0z"/>
</svg>
